# xmcd
#
# Track frame offsets:
#	150
#	17997
#	33221
#	50594
#	63995
#	81305
#	93069
#	110693
#	127567
#	150216
#	162864
#	175822
#
# Disc length: 2589 seconds
#
# Revision: 1
# Processed by: cddbd v1.5.1PL0 Copyright (c) Steve Scherf et al.
# Submitted via: audiograbber 1.83.01
#
DISCID=840a1b0c
DTITLE=Road Side - take one
DYEAR=2002
DGENRE=
TTITLE0=Downtown Nashville
TTITLE1=My Best Friend`s Girl
TTITLE2=Cowboy Of The Road
TTITLE3=No End To The Traveling
TTITLE4=That`s Country Life
TTITLE5=The Light Of Love
TTITLE6=Light Of Heaven
TTITLE7=Is This Love
TTITLE8=Down In The Valley
TTITLE9=I Want You
TTITLE10=Pineywoods Of Kentucky
TTITLE11=Thank God It`s Friday
EXTD=
EXTT0=
EXTT1=
EXTT2=
EXTT3=
EXTT4=
EXTT5=
EXTT6=
EXTT7=
EXTT8=
EXTT9=
EXTT10=
EXTT11=
PLAYORDER=
